<svg xmlns="http://www.w3.org/2000/svg" width="1200" height="900" viewBox="0 0 1200 900" role="img" aria-labelledby="title desc">
  <title id="title">Agentic AI product blueprint</title>
  <desc id="desc">A static technical blueprint showing an agentic product operating layer with planning, tool use, review, execution, and memory modules.</desc>
  <defs>
    <linearGradient id="bg" x1="0" x2="1" y1="0" y2="1"><stop stop-color="#071315"/><stop offset="1" stop-color="#18211f"/></linearGradient>
    <pattern id="grid" width="32" height="32" patternUnits="userSpaceOnUse"><path d="M32 0H0V32" fill="none" stroke="#dff7f3" stroke-opacity=".055"/></pattern>
  </defs>
  <rect width="1200" height="900" rx="34" fill="url(#bg)"/>
  <rect width="1200" height="900" fill="url(#grid)"/>
  <g fill="none" stroke-linecap="square">
    <rect x="86" y="86" width="1028" height="728" rx="18" stroke="#dff7f3" stroke-opacity=".18" stroke-width="2"/>
    <path d="M110 182H1090M110 336H1090M110 490H1090M110 644H1090" stroke="#12d7d1" stroke-opacity=".18" stroke-width="2"/>
    <path d="M380 182V748M610 182V748M850 182V748" stroke="#dff7f3" stroke-opacity=".12"/>
  </g>
  <g font-family="Arial, sans-serif" font-weight="700">
    <text x="110" y="142" fill="#dff7f3" font-size="30">AGENTIC PRODUCT ARCHITECTURE</text>
    <text x="110" y="172" fill="#8fa8aa" font-size="17">planner / tools / review gates / execution memory</text>
  </g>
  <g font-family="Arial, sans-serif" font-weight="700" fill="#dff7f3" font-size="22">
    <rect x="154" y="238" width="238" height="76" rx="10" fill="#081011" stroke="#12d7d1" stroke-opacity=".5"/>
    <text x="184" y="285">GOAL INTAKE</text>
    <rect x="474" y="238" width="238" height="76" rx="10" fill="#081011" stroke="#f0bd58" stroke-opacity=".62"/>
    <text x="504" y="285">PLANNING POLICY</text>
    <rect x="794" y="238" width="238" height="76" rx="10" fill="#081011" stroke="#12d7d1" stroke-opacity=".5"/>
    <text x="824" y="285">ACTION QUEUE</text>
    <rect x="154" y="394" width="238" height="76" rx="10" fill="#081011" stroke="#dff7f3" stroke-opacity=".28"/>
    <text x="184" y="441">TOOL REGISTRY</text>
    <rect x="474" y="394" width="238" height="76" rx="10" fill="#0d1d1d" stroke="#12d7d1" stroke-opacity=".76"/>
    <text x="504" y="441">OPERATING LAYER</text>
    <rect x="794" y="394" width="238" height="76" rx="10" fill="#081011" stroke="#dff7f3" stroke-opacity=".28"/>
    <text x="824" y="441">HUMAN REVIEW</text>
    <rect x="154" y="552" width="238" height="76" rx="10" fill="#081011" stroke="#dff7f3" stroke-opacity=".28"/>
    <text x="184" y="599">MEMORY LEDGER</text>
    <rect x="474" y="552" width="238" height="76" rx="10" fill="#081011" stroke="#f0bd58" stroke-opacity=".55"/>
    <text x="504" y="599">EXECUTION LOG</text>
    <rect x="794" y="552" width="238" height="76" rx="10" fill="#081011" stroke="#12d7d1" stroke-opacity=".5"/>
    <text x="824" y="599">BUSINESS RESULT</text>
  </g>
  <g fill="none" stroke="#12d7d1" stroke-width="3" stroke-opacity=".58">
    <path d="M392 276H474M712 276H794M594 314V394M392 432H474M712 432H794M594 470V552M392 590H474M712 590H794"/>
  </g>
  <path d="M110 748H546M574 748H736M764 748H1090" stroke="#f0bd58" stroke-opacity=".5" stroke-width="3"/>
</svg>
